<?xml version="1.0" encoding="utf-8"?>
<!-- Generator: Adobe Illustrator 25.2.0, SVG Export Plug-In . SVG Version: 6.00 Build 0)  -->
<svg version="1.1" id="Layer_1" xmlns="http://www.w3.org/2000/svg" xmlns:xlink="http://www.w3.org/1999/xlink" x="0px" y="0px"
	 viewBox="0 0 228.27 53.41" style="enable-background:new 0 0 228.27 53.41;" xml:space="preserve">
<style type="text/css">
	.st0{fill:#35155D;}
	.st1{fill:#783F9A;}
	.st2{fill:#9D211F;}
	.st3{fill:#CEC800;}
	.st4{fill:#F2752C;}
	.st5{fill:#F7AF28;}
	.st6{fill:#4F8525;}
	.st7{fill:#7D1049;}
	.st8{fill:#1D626A;}
</style>
<g>
	<g>
		<path d="M67.42,39.85v3.07h3.11v0.48h-3.11v3.81h-1.17v-7.76h4.89v0.4H67.42z"/>
		<path d="M74.17,45.62l0.01-3.72h1.06v3.66c0,1.01,0.59,1.3,1.05,1.3c0.64,0,1.07-0.19,1.35-0.53V41.9h1.06v5.31h-1.06v-0.41
			c-0.33,0.31-0.77,0.56-1.36,0.56C74.77,47.36,74.17,46.47,74.17,45.62z"/>
		<path d="M85.09,41.91v0.64c-0.77,0-1.61-0.12-1.89,1.48v3.18h-1.06v-5.3h1.06v1.38C83.51,42.15,84.16,41.91,85.09,41.91z"/>
		<path d="M93.06,43.64l-0.01,3.57h-1.06V43.7c0-1.01-0.59-1.45-1.05-1.45c-0.64,0-1.07,0.34-1.35,0.68v4.28h-1.06V41.9h1.06v0.56
			c0.33-0.31,0.77-0.56,1.36-0.56C92.46,41.9,93.06,42.79,93.06,43.64z"/>
		<path d="M97.84,40.36c0,0.36-0.3,0.66-0.66,0.66c-0.37,0-0.67-0.3-0.67-0.66c0-0.37,0.3-0.67,0.67-0.67
			C97.54,39.69,97.84,39.99,97.84,40.36z M97.7,47.21h-1.06V41.9h1.06V47.21z"/>
		<path d="M104.67,46.6c-0.25,0.33-0.64,0.75-1.51,0.75c-0.97,0-1.02-0.51-1.02-1.01V42.3h-0.87v-0.4h0.87v-1.33h1.06v1.33h1.13v0.4
			h-1.13v3.84c0,0.31-0.07,0.74,0.3,0.84c0.22,0.06,0.68-0.03,0.94-0.51L104.67,46.6z"/>
		<path d="M108.12,45.62l0.01-3.72h1.06v3.66c0,1.01,0.59,1.3,1.05,1.3c0.64,0,1.07-0.19,1.35-0.53V41.9h1.06v5.31h-1.06v-0.41
			c-0.33,0.31-0.77,0.56-1.36,0.56C108.73,47.36,108.12,46.47,108.12,45.62z"/>
		<path d="M119.04,41.91v0.64c-0.77,0-1.61-0.12-1.89,1.48v3.18h-1.06v-5.3h1.06v1.38C117.46,42.15,118.11,41.91,119.04,41.91z"/>
		<path d="M122.91,44.38v0.24c0,1.95,1.77,3.43,3.42,1.51l0.18,0.17c-0.06,0.14-0.66,1.06-2.18,1.06c-1.63,0-2.59-1.19-2.59-2.74
			c0-1.55,0.95-2.72,2.59-2.72c1.95,0,2.19,1.49,2.19,2.08v0.4H122.91z M122.95,43.97h2.31c-0.02-1.16-0.21-1.71-0.91-1.71
			C123.68,42.27,123.08,42.64,122.95,43.97z"/>
		<path d="M134.14,45.96c0,0.87-1,1.4-2.28,1.4c-0.77,0-1.89-0.37-1.89-1.51h0.42c0,0.89,0.87,1.14,1.48,1.17
			c0.73,0,1.29-0.3,1.29-0.78c0-0.69-0.57-0.81-1.53-1.23c-0.6-0.26-1.67-0.72-1.67-1.72c0-0.77,0.72-1.43,2.09-1.43
			c0.38,0,1.71,0.11,1.71,1.28h-0.37c0-0.81-0.94-0.99-1.33-0.99c-0.65,0-1.14,0.25-1.14,0.82c0,0.57,0.66,0.77,1.42,1.13
			C133.45,44.62,134.14,44.98,134.14,45.96z"/>
		<path d="M149.23,46.25c-0.02,0.13-0.1,0.28-0.1,0.28c-0.1,0.2-0.23,0.38-0.43,0.52c-0.26,0.2-0.67,0.3-1.02,0.3
			c-0.76,0-1.37-0.17-1.94-0.94c-0.69,0.77-1.39,0.94-2.15,0.94c-0.28,0-0.55-0.05-0.83-0.16c-0.26-0.11-0.51-0.25-0.72-0.45
			c-0.2-0.2-0.37-0.42-0.51-0.7c-0.13-0.26-0.18-0.56-0.18-0.89c0-0.49,0.14-0.9,0.4-1.24c0.26-0.34,0.66-0.67,1.42-1.19
			c-0.46-0.64-0.69-1.22-0.69-1.74c0-0.4,0.21-0.83,0.53-1.14c0.31-0.33,0.76-0.53,1.24-0.53c0.42,0,0.81,0.13,1.14,0.36
			c0.34,0.24,0.47,0.56,0.47,0.94c0,0.61-0.52,1.2-1.64,1.77c0.35,0.48,0.69,0.94,1.01,1.4c0.33,0.46,0.64,0.89,0.94,1.34
			c0.09-0.11,0.25-0.41,0.25-0.41c0.21-0.36,0.36-0.79,0.47-1.21c0.01-0.03,0.12-0.34,0.14-0.63l0.26,0.01
			c-0.19,1.91-0.84,2.65-0.84,2.65c0.41,0.6,0.65,0.86,0.89,1.02c0.24,0.16,0.5,0.24,0.76,0.24c0.34,0,0.6-0.16,0.81-0.47
			c0,0,0.05-0.07,0.1-0.17L149.23,46.25z M145.4,46c-0.41-0.64-0.76-1.17-1.12-1.67c-0.35-0.51-0.67-0.97-0.96-1.36
			c-0.41,0.25-0.58,0.42-0.81,0.75c-0.22,0.34-0.32,0.7-0.32,1.02c0,0.49,0.2,0.94,0.58,1.37c0.39,0.43,0.83,0.65,1.32,0.65
			C144.63,46.75,144.94,46.54,145.4,46z M143.35,40.58c0,0.38,0.23,0.91,0.71,1.58c0.78-0.47,1.18-0.96,1.18-1.49
			c0-0.16-0.02-0.31-0.07-0.44c-0.04-0.13-0.11-0.24-0.19-0.34c-0.08-0.1-0.18-0.17-0.3-0.22c-0.13-0.05-0.25-0.07-0.39-0.07
			c-0.29,0-0.51,0.1-0.68,0.29C143.43,40.06,143.35,40.3,143.35,40.58z"/>
		<path d="M164.11,39.45l-2.98,7.92l-1.86-5.39l-1.84,5.39l-2.88-7.92h1.13l2.04,5.61l1.92-5.61l1.91,5.52l2.07-5.52H164.11z"/>
		<path d="M171.34,44.62c0,1.9-1.13,2.74-2.52,2.74c-1.4,0-2.53-0.84-2.53-2.74c0-1.83,1.13-2.72,2.53-2.72
			C170.2,41.9,171.34,42.77,171.34,44.62z M170.18,44.62c0-1.69-0.45-2.49-1.37-2.49c-0.92,0-1.38,0.82-1.38,2.49
			c0,1.74,0.46,2.49,1.38,2.49C169.74,47.11,170.18,46.36,170.18,44.62z"/>
		<path d="M179.63,44.62c0,1.9-1.13,2.74-2.52,2.74c-1.4,0-2.53-0.84-2.53-2.74c0-1.83,1.13-2.72,2.53-2.72
			C178.5,41.9,179.63,42.77,179.63,44.62z M178.48,44.62c0-1.69-0.45-2.49-1.37-2.49c-0.92,0-1.38,0.82-1.38,2.49
			c0,1.74,0.46,2.49,1.38,2.49C178.03,47.11,178.48,46.36,178.48,44.62z"/>
		<path d="M185.17,41.91c0.88,0,1.43,0.4,1.75,0.8v-3.25h1.06v7.76h-1.06v-0.64c-0.31,0.4-0.85,0.78-1.75,0.78
			c-1.63,0-2.3-1.17-2.3-2.71C182.87,43.09,183.54,41.91,185.17,41.91z M186.92,46.04v-2.81c-1.23-1.77-2.88-1.08-2.88,1.41
			C184.02,47.15,185.69,47.8,186.92,46.04z"/>
		<path d="M198.57,41.9l-1.87,5.46L195,42.65l-1.6,4.71l-1.97-5.46h1.12l1.18,3.24l1.11-3.24h1.01l1.19,3.24l1.11-3.24H198.57z"/>
		<path d="M206.33,44.62c0,1.9-1.13,2.74-2.52,2.74c-1.4,0-2.53-0.84-2.53-2.74c0-1.83,1.13-2.72,2.53-2.72
			C205.2,41.9,206.33,42.77,206.33,44.62z M205.18,44.62c0-1.69-0.45-2.49-1.37-2.49c-0.92,0-1.38,0.82-1.38,2.49
			c0,1.74,0.46,2.49,1.38,2.49C204.73,47.11,205.18,46.36,205.18,44.62z"/>
		<path d="M212.73,41.91v0.64c-0.77,0-1.61-0.12-1.89,1.48v3.18h-1.06v-5.3h1.06v1.38C211.15,42.15,211.79,41.91,212.73,41.91z"/>
		<path d="M218.3,44.26l2.3,2.95h-1.35l-2.02-2.59v2.59h-1.06v-7.76h1.06v5.11l2.44-2.23h0.7L218.3,44.26z"/>
		<path d="M228.22,45.96c0,0.87-1,1.4-2.28,1.4c-0.77,0-1.89-0.37-1.89-1.51h0.42c0,0.89,0.87,1.14,1.48,1.17
			c0.73,0,1.29-0.3,1.29-0.78c0-0.69-0.57-0.81-1.53-1.23c-0.6-0.26-1.67-0.72-1.67-1.72c0-0.77,0.72-1.43,2.09-1.43
			c0.38,0,1.71,0.11,1.71,1.28h-0.37c0-0.81-0.94-0.99-1.33-0.99c-0.65,0-1.14,0.25-1.14,0.82c0,0.57,0.66,0.77,1.42,1.13
			C227.53,44.62,228.22,44.98,228.22,45.96z"/>
	</g>
	<g>
		<path class="st0" d="M74.97,19.35c-3.58-1.34-6.95-2.61-6.95-5.53c0-3.34,3.04-4.53,5.89-4.53c2.62,0,5.02,0.99,5.76,2.36
			l-1.98,1.89l-0.04,0.04v0.05c0,1.36,1.04,1.98,2.01,1.98c0.95,0,1.98-0.62,1.98-1.98c0-3.02-3.91-4.82-7.69-4.82
			c-3.44,0-7.46,1.62-7.46,6.17c0,4.25,4.21,5.81,8.28,7.31c3.49,1.29,6.79,2.51,6.79,5.35c0,3-3.35,4.86-6.45,4.86
			c-3.5,0-7.34-2.19-7.64-8.34l-0.01-0.14l-0.43,0.07l-1.1,7.89l-0.02,0.14h0.47l0-0.12c0.04-0.87,0.46-2.56,1.1-2.56
			c0.36,0,0.79,0.39,1.35,0.88c1.19,1.06,2.99,2.66,6.35,2.66c4.8,0,8.16-2.58,8.16-6.27C83.32,22.49,79.08,20.89,74.97,19.35z"/>
		<path class="st0" d="M93.67,15.59c-5.45,0-7.93,4.4-7.93,8.49c0,4.4,2.84,8.85,8.26,8.85c3.34,0,5.47-1.63,6.33-4.85l0.03-0.12
			l-0.49-0.14l-0.02,0.15c-0.18,1.37-1.74,4.05-4.53,4.05c-3.69,0-6.24-3.87-6.89-7.75h12.14v-0.36
			C100.57,17.8,96.44,15.59,93.67,15.59z M97.97,23.78h-9.61c-0.06-0.49-0.08-0.97-0.08-1.43c0-3.08,1.39-6.19,4.5-6.19
			C95.83,16.17,97.83,20.1,97.97,23.78z"/>
		<path class="st0" d="M110.72,15.59c-5.45,0-7.93,4.4-7.93,8.49c0,4.4,2.84,8.85,8.26,8.85c3.34,0,5.47-1.63,6.33-4.85l0.03-0.12
			l-0.49-0.14l-0.02,0.15c-0.18,1.37-1.74,4.05-4.53,4.05c-3.69,0-6.24-3.87-6.89-7.75h12.14v-0.36
			C117.62,17.8,113.5,15.59,110.72,15.59z M115.02,23.78h-9.61c-0.06-0.49-0.08-0.97-0.08-1.43c0-3.08,1.39-6.19,4.5-6.19
			C112.88,16.17,114.88,20.1,115.02,23.78z"/>
		<path class="st0" d="M129.68,28.65c-0.95,2.1-2.39,3.46-3.69,3.46c-1.08,0-1.76-1.03-1.76-2.68V16.37h4.99v-0.55h-4.99v-3.31
			h-0.47l-0.04,0.55c-0.06,1.94-0.54,2.75-3.35,2.75h-1.15v0.55h2.31v13.16c0,2.06,1.42,3.56,3.36,3.56c2,0,3.95-1.57,5.2-4.2
			l0.05-0.1l-0.41-0.27L129.68,28.65z"/>
		<path class="st0" d="M147.43,25.92c0.01-3.17,0.02-6.76-2.03-8.8c-1.09-1.1-2.63-1.63-4.71-1.63c-2.14,0-3.68,1.32-4.4,2.11V7.56
			h-4.58v0.48h1.88v24.07h-2.45v0.48h7.56v-0.48h-2.41V18.27c0.69-0.84,2.13-2.2,4.14-2.2c1.15,0,2.03,0.32,2.7,0.99
			c1.6,1.61,1.59,4.89,1.57,7.79c0,0.26,0,0.52,0,0.77v6.48h-2.45v0.48h7.56v-0.48h-2.38L147.43,25.92z"/>
		<path class="st0" d="M167.8,30.55c-0.6,0.86-1.12,1.33-1.48,1.33c-0.26,0-0.87-0.32-0.87-3.28v-3.76H161v0.48h1.75v2.44
			c-0.25,2.32-3.06,3.89-5.53,3.89c-0.93,0-3.08-0.24-3.08-2.45c0-2.53,2.64-3.61,5.43-4.74c2.77-1.13,5.64-2.29,5.64-5.04
			c0-2.67-3.05-3.86-6.07-3.86c-3.28,0-6.77,1.39-6.77,3.96c0,1.12,0.86,1.71,1.71,1.71c0.84,0,1.74-0.54,1.74-1.71v-0.04
			l-1.27-1.85c0.48-0.92,2.05-1.55,3.85-1.55c2.21,0,4.8,0.99,4.8,3.77c0,2.97-3.04,3.9-5.98,4.8c-2.83,0.87-5.75,1.76-5.75,4.52
			c0,2.38,1.57,3.79,4.19,3.79c2.79,0,5.83-1.59,7.08-3.62v0.06c0,1.97,1.08,3.4,2.57,3.4c1.07,0,2.09-0.71,2.88-2.01l0.07-0.12
			l-0.42-0.21L167.8,30.55z"/>
		<path class="st0" d="M180.7,15.23c-0.34-0.14-0.69-0.21-1.04-0.21c-1.54,0-3.25,1.23-5.23,3.76v-2.96h-4.58v0.48h1.88v15.81h-2.45
			v0.48h7.56v-0.48h-2.41V19.42c1.53-1.95,3.03-2.98,3.73-2.99l0.89,1.77l0.06,0.01c1.34,0.25,2.18-0.43,2.42-1.22
			C181.75,16.26,181.41,15.53,180.7,15.23z"/>
		<path class="st0" d="M198.7,30.55c-0.6,0.86-1.12,1.33-1.48,1.33c-0.26,0-0.87-0.32-0.87-3.28v-3.76h-4.45v0.48h1.75v2.44
			c-0.25,2.32-3.06,3.89-5.53,3.89c-0.93,0-3.08-0.24-3.08-2.45c0-2.53,2.64-3.61,5.43-4.74c2.77-1.13,5.64-2.29,5.64-5.04
			c0-2.67-3.05-3.86-6.07-3.86c-3.28,0-6.77,1.39-6.77,3.96c0,1.12,0.86,1.71,1.71,1.71c0.84,0,1.74-0.54,1.74-1.71v-0.04
			l-1.27-1.85c0.48-0.92,2.05-1.55,3.85-1.55c2.21,0,4.8,0.99,4.8,3.77c0,2.97-3.04,3.9-5.98,4.8c-2.83,0.87-5.75,1.76-5.75,4.52
			c0,2.38,1.57,3.79,4.19,3.79c2.79,0,5.83-1.59,7.08-3.62v0.06c0,1.97,1.08,3.4,2.57,3.4c1.07,0,2.09-0.71,2.88-2.01l0.07-0.12
			l-0.42-0.21L198.7,30.55z"/>
		<path class="st0" d="M225.89,32.11l0-6.19c0.01-3.17,0.02-6.76-2.03-8.8c-1.09-1.1-2.63-1.63-4.71-1.63
			c-1.75,0-3.44,0.94-4.55,2.54c-1.07-1.71-2.85-2.54-5.43-2.54c-1.38,0-2.76,0.61-3.84,1.69v-1.36h-4.58v0.48h1.88v15.81h-2.45
			v0.48h7.56v-0.48h-2.41v-14.3c0.7-0.8,1.88-1.74,3.54-1.74c1.15,0,2.04,0.33,2.71,1c1.62,1.62,1.6,4.93,1.59,7.86l0,7.19h-2.44
			v0.48h7.56v-0.48h-2.38l0-6.2c0.01-2.55,0.01-5.43-1.07-7.51c0.65-0.9,2-2.33,4.02-2.33c1.15,0,2.04,0.33,2.71,1
			c1.62,1.62,1.6,4.94,1.59,7.86l0,7.18h-2.45v0.48h7.56v-0.48H225.89z"/>
	</g>
</g>
<g>
	<path class="st0" d="M19.59,43.43c-2.86,1.5-4.02,4.33-2.93,7.15c1.26-0.33,1.72-0.77,3.3-3.19c0.27,0.38,0.49,0.77,0.79,1.1
		c0.4,0.45,0.33,0.81,0.01,1.28c-1.24,1.86-3.17,2.71-5.1,3.56c-1.99-3.86-2.32-8.57,3.36-11.93c-1.25-4.09-0.07-7.35,3.47-9.63
		c-0.25-0.35-0.48-0.68-0.77-1.08c-2.43,3.64-5.62,4.93-9.8,3.59c-1.22,2.2-2.88,3.9-5.41,4.51C4.23,39.34,2.14,38.64,0,37.75
		c0.74-1.79,1.52-3.48,3-4.76c0.74-0.65,1.45-0.95,2.26-0.12c0.21,0.22,0.5,0.37,0.82,0.59c-1.59,0.6-2.68,1.62-3.39,3.07
		c2.85,1.67,6.35-0.52,7.28-2.9c-3.65-1.69-6.84-4.05-9.72-6.96c2.87-2.87,6.04-5.22,9.69-6.86C9.07,17,5.46,15.49,2.72,16.75
		c0.6,1.48,1.74,2.4,3.22,3.14c-0.64,0.42-1.18,0.79-1.78,1.18c-2.21-1.14-3.17-3.24-4.12-5.36c3.62-2.61,8.87-1.51,11.3,2.43
		c0.46,0.75,0.82,0.87,1.65,0.66c2.95-0.74,5.48,0.09,7.54,2.33c0.3,0.33,0.59,0.68,0.94,1.07c0.26-0.24,0.49-0.45,0.71-0.66
		c-0.1,0.04-0.2,0.09-0.3,0.13c-0.52-0.65-1.04-1.31-1.57-1.96c-1.72-2.09-2.13-4.46-1.43-7.03c0.14-0.51,0.14-0.78-0.37-1.11
		c-3.93-2.55-4.98-5.7-3.44-10.16c0.16-0.46,0.34-0.91,0.52-1.42c1.84,0.77,3.56,1.59,4.84,3.13c0.63,0.76,0.92,1.45,0.11,2.26
		c-0.22,0.22-0.36,0.51-0.59,0.84c-0.59-1.67-1.62-2.83-3.17-3.53c-1.26,2.7,0,5.85,2.96,7.31c1.71-3.65,4.03-6.87,6.97-9.71
		c2.91,2.85,5.22,6.04,6.88,9.68c2.85-1.15,4.2-4.33,3.04-7.27c-1.46,0.62-2.43,1.7-3.07,3.11c-0.08-0.03-0.16-0.03-0.18-0.07
		c-1.27-1.83-1.22-2.17,0.56-3.62c0.35-0.29,0.72-0.58,1.11-0.79c0.86-0.47,1.75-0.89,2.63-1.33c2.22,4.48,1.86,8.94-3.39,11.98
		c0.54,1.73,0.75,3.52,0.14,5.32c-0.61,1.81-1.84,3.12-3.42,4.23c0.26,0.31,0.48,0.57,0.77,0.91c2.43-3.47,5.63-4.66,9.6-3.35
		c3.43-5.74,8.12-5.31,11.92-3.38c-0.72,1.83-1.57,3.57-3.16,4.84c-1.07,0.86-1.42,0.79-2.92-0.6c1.57-0.56,2.73-1.56,3.41-3.07
		c-2.33-1.45-5.76-0.11-7.29,2.91c3.67,1.68,6.86,4.04,9.74,6.97c-2.86,2.9-6.05,5.21-9.69,6.88c0.99,2.82,4.38,4.25,7.24,3.04
		c-0.64-1.55-1.79-2.54-3.46-3.2c0.46-0.32,0.86-0.56,1.21-0.86c0.45-0.38,0.81-0.34,1.3-0.02c1.88,1.23,2.71,3.17,3.6,5.08
		c-3.66,2.64-8.93,1.47-11.38-2.54c-0.38-0.62-0.68-0.77-1.4-0.58c-3.3,0.87-6.22-0.21-8.27-2.96c-0.23-0.31-0.45-0.62-0.77-1.07
		c-0.29,0.41-0.55,0.77-0.8,1.12c4.35,2.96,4.62,6.34,3.59,9.83c2.22,1.25,3.98,2.95,4.52,5.59c0.46,2.24-0.21,4.31-1.09,6.37
		c-1.76-0.84-3.54-1.57-4.82-3.14c-0.64-0.78-0.88-1.46-0.08-2.25c0.19-0.19,0.31-0.45,0.56-0.81c0.64,1.62,1.64,2.78,3.13,3.48
		c1.46-2.33,0.1-5.79-2.78-7.24c-1.05,1.7-2,3.46-3.16,5.08c-1.15,1.61-2.51,3.09-3.94,4.82c-1.42-1.74-2.76-3.23-3.91-4.85
		C21.58,46.9,20.65,45.17,19.59,43.43z M3.11,26.61c1.44,1.84,5.48,4.49,7.8,5.12c1.88-3.79,5.04-5.08,9.18-4.39
		c-0.04-0.51-0.07-0.88-0.11-1.3c-4.19,0.72-7.23-0.76-9.12-4.5C7.89,22.79,5.3,24.39,3.11,26.61z M42.48,31.84
		c3-1.21,5.57-2.87,7.8-5.13c-2.29-2.28-4.85-3.98-7.82-5.11c-1.99,3.96-5.21,5.19-9.38,4.4c0,0.52,0,0.95,0,1.41
		C37.31,26.6,40.48,27.93,42.48,31.84z M21.57,42.49c1.02,2.86,3.44,6.47,5.12,7.72c2.15-2.02,4.43-5.51,5.02-7.75
		c-3.98-2-5.18-5.32-4.27-9.56c-0.53,0-0.99,0-1.51,0C26.83,37.21,25.53,40.45,21.57,42.49z M26.72,3.08
		c-2.26,2.27-3.98,4.82-5.15,7.82c3.71,1.86,5.12,4.88,4.54,8.88c0.29,0.02,0.46,0.04,0.63,0.03c0.16,0,0.32-0.04,0.55-0.07
		c-0.59-4.04,0.84-7.02,4.52-8.85C30.62,7.92,28.95,5.37,26.72,3.08z M23.95,20.08c0.99-3.18-0.33-6.26-3.03-7.18
		C19.74,15.49,21.11,18.82,23.95,20.08z M33.28,23.95c3.05,1.12,6.44-0.39,7.19-3.03C37.71,19.83,34.65,21.1,33.28,23.95z
		 M12.86,20.92c0.72,2.45,4.24,4.36,7.18,2.91C18.53,20.99,15.5,19.76,12.86,20.92z M40.53,32.51c-1.15-2.92-4.92-4.42-7.23-2.93
		C34.87,32.39,37.56,33.5,40.53,32.51z M32.41,12.87c-2.78,1.08-4.2,4.53-2.96,7.18C32.24,18.89,33.69,15.36,32.41,12.87z
		 M29.43,33.37c-1.19,2.81,0.34,6.4,3.03,7.13C33.56,37.75,32.12,34.36,29.43,33.37z M20.07,29.48c-2.78-1.23-6.17,0.18-7.24,2.97
		C15.71,33.82,18.86,31.96,20.07,29.48z M20.87,40.55c2.9-1.17,4.34-4.75,2.95-7.21C21.02,34.78,19.81,37.67,20.87,40.55z"/>
	<path class="st0" d="M15.79,16.02c-5.91,0.75-10.34-3.59-9.75-9.47C11.89,6,16.14,9.52,15.79,16.02z"/>
	<path class="st0" d="M15.79,16.02c-5.91,0.75-10.34-3.59-9.75-9.47C11.89,6,16.14,9.52,15.79,16.02z"/>
	<path class="st1" d="M13.86,14.18c-1.73-0.14-3.25-0.85-4.33-2.05c-0.91-1-1.45-2.29-1.61-3.72c1.77,0.13,3.24,0.77,4.28,1.86
		C13.13,11.25,13.69,12.58,13.86,14.18z"/>
	<path class="st0" d="M37.34,15.77C36.81,9.4,40.9,5.71,46.79,6.11C47.49,12.2,43.34,16.3,37.34,15.77z"/>
	<path class="st0" d="M6.47,47.28c-0.56-5.98,3.82-10.41,9.5-9.66C16.7,43.37,12.84,47.78,6.47,47.28z"/>
	<path class="st0" d="M47.26,46.85c-7.14,0.6-10.2-4.53-9.63-9.43C42.88,36.71,47.73,40.09,47.26,46.85z"/>
	<path class="st2" d="M26.75,12.51c-0.77-0.73-1.76-1.66-2.94-2.76c0.76-1.17,1.72-2.66,2.87-4.43c1.12,1.76,2.08,3.26,2.89,4.53
		C28.4,10.95,27.41,11.89,26.75,12.51z"/>
	<path class="st3" d="M40.82,26.81c0.73-0.77,1.66-1.76,2.76-2.94c1.17,0.76,2.66,1.72,4.43,2.87c-1.76,1.12-3.26,2.08-4.53,2.89
		C42.38,28.46,41.44,27.47,40.82,26.81z"/>
	<path class="st4" d="M26.52,40.88c0.77,0.73,1.76,1.66,2.94,2.76c-0.76,1.17-1.72,2.66-2.87,4.43c-1.12-1.76-2.08-3.26-2.89-4.53
		C24.87,42.44,25.86,41.5,26.52,40.88z"/>
	<path class="st5" d="M12.45,26.58c-0.73,0.77-1.66,1.76-2.76,2.94c-1.17-0.76-2.66-1.72-4.43-2.87c1.76-1.12,3.26-2.08,4.53-2.89
		C10.89,24.93,11.83,25.92,12.45,26.58z"/>
	<path class="st6" d="M39.06,13.83c0.14-1.73,0.85-3.25,2.05-4.33c1-0.91,2.29-1.45,3.72-1.61c-0.13,1.77-0.77,3.24-1.86,4.28
		C41.99,13.1,40.66,13.66,39.06,13.83z"/>
	<path class="st7" d="M39.41,39.03c1.73,0.14,3.25,0.85,4.33,2.05c0.91,1,1.45,2.29,1.61,3.72c-1.77-0.13-3.24-0.77-4.28-1.86
		C40.15,41.96,39.58,40.63,39.41,39.03z"/>
	<path class="st8" d="M14.21,39.38c-0.14,1.73-0.85,3.25-2.05,4.33c-1,0.91-2.29,1.45-3.72,1.61c0.13-1.77,0.77-3.24,1.86-4.28
		C11.28,40.11,12.61,39.55,14.21,39.38z"/>
</g>
</svg>
