<?xml version="1.0" encoding="utf-8"?>
<!-- Generator: Adobe Illustrator 25.2.0, SVG Export Plug-In . SVG Version: 6.00 Build 0)  -->
<svg version="1.1" id="Layer_1" xmlns="http://www.w3.org/2000/svg" xmlns:xlink="http://www.w3.org/1999/xlink" x="0px" y="0px"
	 viewBox="0 0 53.3 53.5" style="enable-background:new 0 0 53.3 53.5;" xml:space="preserve">
<style type="text/css">
	.st0{fill:#35155D;}
	.st1{fill:#783F9A;}
	.st2{fill:#9D211F;}
	.st3{fill:#CEC800;}
	.st4{fill:#F2752C;}
	.st5{fill:#F7AF28;}
	.st6{fill:#4F8525;}
	.st7{fill:#7D1049;}
	.st8{fill:#1D626A;}
</style>
<g>
	<path class="st0" d="M19.6,43.4c-2.9,1.5-4,4.3-2.9,7.2c1.3-0.3,1.7-0.8,3.3-3.2c0.3,0.4,0.5,0.8,0.8,1.1c0.4,0.5,0.3,0.8,0,1.3
		c-1.2,1.9-3.2,2.7-5.1,3.6c-2-3.9-2.3-8.6,3.4-11.9c-1.2-4.1-0.1-7.3,3.5-9.6c-0.2-0.4-0.5-0.7-0.8-1.1c-2.4,3.6-5.6,4.9-9.8,3.6
		c-1.2,2.2-2.9,3.9-5.4,4.5c-2.3,0.5-4.4-0.2-6.5-1C0.7,36,1.5,34.3,3,33c0.7-0.7,1.4-1,2.3-0.1c0.2,0.2,0.5,0.4,0.8,0.6
		c-1.6,0.6-2.7,1.6-3.4,3.1C5.5,38.2,9,36,10,33.6c-3.7-1.7-6.8-4.1-9.7-7c2.9-2.9,6-5.2,9.7-6.9c-0.9-2.8-4.5-4.3-7.2-3.1
		c0.6,1.5,1.7,2.4,3.2,3.1c-0.6,0.4-1.2,0.8-1.8,1.2C1.9,19.9,1,17.8,0,15.7c3.6-2.6,8.9-1.5,11.3,2.4c0.5,0.8,0.8,0.9,1.6,0.7
		c2.9-0.7,5.5,0.1,7.5,2.3c0.3,0.3,0.6,0.7,0.9,1.1c0.3-0.2,0.5-0.5,0.7-0.7c-0.1,0-0.2,0.1-0.3,0.1c-0.5-0.6-1-1.3-1.6-2
		c-1.7-2.1-2.1-4.5-1.4-7c0.1-0.5,0.1-0.8-0.4-1.1c-3.9-2.6-5-5.7-3.4-10.2C15.2,1,15.4,0.5,15.6,0c1.8,0.8,3.6,1.6,4.8,3.1
		c0.6,0.8,0.9,1.4,0.1,2.3c-0.2,0.2-0.4,0.5-0.6,0.8c-0.6-1.7-1.6-2.8-3.2-3.5c-1.3,2.7,0,5.8,3,7.3c1.7-3.7,4-6.9,7-9.7
		c2.9,2.8,5.2,6,6.9,9.7c2.8-1.1,4.2-4.3,3-7.3c-1.5,0.6-2.4,1.7-3.1,3.1c-0.1,0-0.2,0-0.2-0.1c-1.3-1.8-1.2-2.2,0.6-3.6
		c0.3-0.3,0.7-0.6,1.1-0.8c0.9-0.5,1.8-0.9,2.6-1.3c2.2,4.5,1.9,8.9-3.4,12c0.5,1.7,0.8,3.5,0.1,5.3c-0.6,1.8-1.8,3.1-3.4,4.2
		c0.3,0.3,0.5,0.6,0.8,0.9c2.4-3.5,5.6-4.7,9.6-3.4c3.4-5.7,8.1-5.3,11.9-3.4c-0.7,1.8-1.6,3.6-3.2,4.8c-1.1,0.9-1.4,0.8-2.9-0.6
		c1.6-0.6,2.7-1.6,3.4-3.1c-2.3-1.4-5.8-0.1-7.3,2.9c3.7,1.7,6.9,4,9.7,7c-2.9,2.9-6,5.2-9.7,6.9c1,2.8,4.4,4.2,7.2,3
		c-0.6-1.5-1.8-2.5-3.5-3.2c0.5-0.3,0.9-0.6,1.2-0.9c0.5-0.4,0.8-0.3,1.3,0c1.9,1.2,2.7,3.2,3.6,5.1c-3.7,2.6-8.9,1.5-11.4-2.5
		c-0.4-0.6-0.7-0.8-1.4-0.6c-3.3,0.9-6.2-0.2-8.3-3c-0.2-0.3-0.5-0.6-0.8-1.1c-0.3,0.4-0.5,0.8-0.8,1.1c4.3,3,4.6,6.3,3.6,9.8
		c2.2,1.2,4,3,4.5,5.6c0.5,2.2-0.2,4.3-1.1,6.4c-1.8-0.8-3.5-1.6-4.8-3.1c-0.6-0.8-0.9-1.5-0.1-2.2c0.2-0.2,0.3-0.5,0.6-0.8
		c0.6,1.6,1.6,2.8,3.1,3.5c1.5-2.3,0.1-5.8-2.8-7.2c-1,1.7-2,3.5-3.2,5.1c-1.1,1.6-2.5,3.1-3.9,4.8c-1.4-1.7-2.8-3.2-3.9-4.8
		C21.6,46.9,20.6,45.2,19.6,43.4z M3.1,26.6c1.4,1.8,5.5,4.5,7.8,5.1c1.9-3.8,5-5.1,9.2-4.4c0-0.5-0.1-0.9-0.1-1.3
		c-4.2,0.7-7.2-0.8-9.1-4.5C7.9,22.8,5.3,24.4,3.1,26.6z M42.5,31.9c3-1.2,5.6-2.9,7.8-5.1c-2.3-2.3-4.8-4-7.8-5.1
		c-2,4-5.2,5.2-9.4,4.4c0,0.5,0,1,0,1.4C37.3,26.6,40.5,27.9,42.5,31.9z M21.6,42.5c1,2.9,3.4,6.5,5.1,7.7c2.1-2,4.4-5.5,5-7.8
		c-4-2-5.2-5.3-4.3-9.6c-0.5,0-1,0-1.5,0C26.8,37.2,25.5,40.5,21.6,42.5z M26.7,3.1c-2.3,2.3-4,4.8-5.1,7.8c3.7,1.9,5.1,4.9,4.5,8.9
		c0.3,0,0.5,0,0.6,0c0.2,0,0.3,0,0.5-0.1c-0.6-4,0.8-7,4.5-8.8C30.6,7.9,29,5.4,26.7,3.1z M24,20.1c1-3.2-0.3-6.3-3-7.2
		C19.7,15.5,21.1,18.8,24,20.1z M33.3,24c3,1.1,6.4-0.4,7.2-3C37.7,19.8,34.7,21.1,33.3,24z M12.9,20.9c0.7,2.5,4.2,4.4,7.2,2.9
		C18.5,21,15.5,19.8,12.9,20.9z M40.5,32.5c-1.2-2.9-4.9-4.4-7.2-2.9C34.9,32.4,37.6,33.5,40.5,32.5z M32.4,12.9
		c-2.8,1.1-4.2,4.5-3,7.2C32.2,18.9,33.7,15.4,32.4,12.9z M29.4,33.4c-1.2,2.8,0.3,6.4,3,7.1C33.6,37.8,32.1,34.4,29.4,33.4z
		 M20.1,29.5c-2.8-1.2-6.2,0.2-7.2,3C15.7,33.8,18.9,32,20.1,29.5z M20.9,40.6c2.9-1.2,4.3-4.8,3-7.2C21,34.8,19.8,37.7,20.9,40.6z"
		/>
	<path class="st0" d="M15.8,16C9.9,16.8,5.4,12.4,6,6.6C11.9,6,16.1,9.5,15.8,16z"/>
	<path class="st0" d="M15.8,16C9.9,16.8,5.4,12.4,6,6.6C11.9,6,16.1,9.5,15.8,16z"/>
	<path class="st1" d="M13.9,14.2c-1.7-0.1-3.2-0.9-4.3-2.1c-0.9-1-1.4-2.3-1.6-3.7c1.8,0.1,3.2,0.8,4.3,1.9
		C13.1,11.3,13.7,12.6,13.9,14.2z"/>
	<path class="st0" d="M37.3,15.8c-0.5-6.4,3.6-10.1,9.5-9.7C47.5,12.2,43.3,16.3,37.3,15.8z"/>
	<path class="st0" d="M6.5,47.3c-0.6-6,3.8-10.4,9.5-9.7C16.7,43.4,12.8,47.8,6.5,47.3z"/>
	<path class="st0" d="M47.3,46.9c-7.1,0.6-10.2-4.5-9.6-9.4C42.9,36.7,47.7,40.1,47.3,46.9z"/>
	<path class="st2" d="M26.8,12.5c-0.8-0.7-1.8-1.7-2.9-2.8c0.8-1.2,1.7-2.7,2.9-4.4c1.1,1.8,2.1,3.3,2.9,4.5
		C28.4,11,27.4,11.9,26.8,12.5z"/>
	<path class="st3" d="M40.8,26.8c0.7-0.8,1.7-1.8,2.8-2.9c1.2,0.8,2.7,1.7,4.4,2.9c-1.8,1.1-3.3,2.1-4.5,2.9
		C42.4,28.5,41.4,27.5,40.8,26.8z"/>
	<path class="st4" d="M26.5,40.9c0.8,0.7,1.8,1.7,2.9,2.8c-0.8,1.2-1.7,2.7-2.9,4.4c-1.1-1.8-2.1-3.3-2.9-4.5
		C24.9,42.5,25.9,41.5,26.5,40.9z"/>
	<path class="st5" d="M12.4,26.6c-0.7,0.8-1.7,1.8-2.8,2.9c-1.2-0.8-2.7-1.7-4.4-2.9c1.8-1.1,3.3-2.1,4.5-2.9
		C10.9,24.9,11.8,25.9,12.4,26.6z"/>
	<path class="st6" d="M39.1,13.8c0.1-1.7,0.8-3.2,2-4.3c1-0.9,2.3-1.4,3.7-1.6c-0.1,1.8-0.8,3.2-1.9,4.3
		C42,13.1,40.7,13.7,39.1,13.8z"/>
	<path class="st7" d="M39.4,39c1.7,0.1,3.2,0.8,4.3,2c0.9,1,1.5,2.3,1.6,3.7c-1.8-0.1-3.2-0.8-4.3-1.9C40.2,42,39.6,40.6,39.4,39z"
		/>
	<path class="st8" d="M14.2,39.4c-0.1,1.7-0.9,3.2-2.1,4.3c-1,0.9-2.3,1.5-3.7,1.6c0.1-1.8,0.8-3.2,1.9-4.3
		C11.3,40.1,12.6,39.6,14.2,39.4z"/>
</g>
</svg>
